<?xml version="1.0" encoding="UTF-8" standalone="no"?>
<!-- Created with Inkscape (http://www.inkscape.org/) -->

<svg
   version="1.1"
   id="svg2"
   width="4000"
   height="4000"
   viewBox="0 0 4000 4000"
   sodipodi:docname="30.eps"
   xmlns:inkscape="http://www.inkscape.org/namespaces/inkscape"
   xmlns:sodipodi="http://sodipodi.sourceforge.net/DTD/sodipodi-0.dtd"
   xmlns="http://www.w3.org/2000/svg"
   xmlns:svg="http://www.w3.org/2000/svg">
  <defs
     id="defs6" />
  <sodipodi:namedview
     id="namedview4"
     pagecolor="#ffffff"
     bordercolor="#000000"
     borderopacity="0.25"
     inkscape:showpageshadow="2"
     inkscape:pageopacity="0.0"
     inkscape:pagecheckerboard="0"
     inkscape:deskcolor="#d1d1d1" />
  <g
     id="g8"
     inkscape:groupmode="layer"
     inkscape:label="ink_ext_XXXXXX"
     transform="matrix(1.3333333,0,0,-1.3333333,0,4000)">
    <g
       id="g10"
       transform="scale(0.1)">
      <path
         d="m 16341.4,11482.6 c 70.2,-25.4 138.7,-54.1 212.3,-7.9 60.6,38.4 85.5,-40.2 20.2,-66.3 -244.7,-97.4 -333.9,-359.6 -666.2,-234.5 -181.7,68.2 -456.7,101.2 -666.1,86 -115.4,-8.4 -212.3,-70.1 -297.4,-72.2 -155.5,-3.8 -282.6,56.8 -489.6,53.6 -215.2,-3.5 -426.5,-33.3 -598,-95.8 -158.1,-57.7 -209.6,-29.3 -331.9,79.8 -43.3,38.7 -84.4,77.3 -134.9,102.6 -159.5,79.8 -74.5,109.7 -4.7,90 222.1,-62.5 626.7,222.4 842.9,271.4 337,76.1 473.7,-16.8 606.1,-89.1 172.8,-94.4 188.9,80.5 471.4,141.7 189,40.9 811.3,-178 1035.9,-259.3 v 0"
         style="fill:#000000;fill-opacity:1;fill-rule:nonzero;stroke:none"
         id="path12" />
      <path
         d="m 14339.1,10534.6 c -88.1,64.2 -163.7,77.2 -200.3,195.5 19.7,80.9 114.1,-54.3 226.4,-55.4 216.8,-2 242.6,49 513.6,49 348.8,-0.1 334.3,-153.5 779.6,54.2 139,20.2 -0.1,-89.7 -139.6,-208 -156.2,-132.3 -191.3,-202.8 -354,-240.1 -160.5,-36.7 -448.8,-41.5 -591,12.5 -101.8,38.6 -125.4,112.6 -234.7,192.3 v 0"
         style="fill:#000000;fill-opacity:1;fill-rule:nonzero;stroke:none"
         id="path14" />
      <path
         d="m 14568.4,12863.5 c -280.8,-15.3 -518.9,-12.6 -463,63.7 88.3,120.4 362.4,274.1 538.3,195 244.3,-109.8 407.5,12.3 590,34.3 180.5,21.7 670.4,-258.1 425.1,-286.8 -212.2,-24.7 -796.2,9.9 -1090.4,-6.2 v 0"
         style="fill:#000000;fill-opacity:1;fill-rule:nonzero;stroke:none"
         id="path16" />
      <path
         d="m 14120.4,13256.1 c 336.4,806 462.2,1604.6 -79.4,2683.4 -4,8.1 -4.5,394 177.1,214.1 637.2,-630.2 416,-2343.6 -97.7,-2897.5 v 0"
         style="fill:#000000;fill-opacity:1;fill-rule:nonzero;stroke:none"
         id="path18" />
      <path
         d="m 16750.5,16023.1 c 1879.6,707.6 3286.5,773.2 5042,794.3 -1858.4,-15.3 -3681.3,-373.8 -4957.5,-890 -268.5,-108.7 -148.3,-78.6 -234.4,-89 -149.8,-18 -313.4,10.3 149.9,184.7 v 0"
         style="fill:#000000;fill-opacity:1;fill-rule:evenodd;stroke:none"
         id="path20" />
      <path
         d="m 16840.7,16017.6 c 1471.6,643 2812.2,892.4 4239.6,1000.1 -973.7,-20.9 -2531.4,-135.7 -4298.3,-863 -309.7,-127.4 -367.3,-222.5 -258.6,-225.7 60,-1.8 170.5,24.5 317.3,88.6 v 0"
         style="fill:#000000;fill-opacity:1;fill-rule:evenodd;stroke:none"
         id="path22" />
      <path
         d="m 18600.9,16497.8 475.7,105.7 c 228.1,-271.9 149.6,-761.2 72.4,-943.1 l -450.7,-111.2 c 48.7,435.6 31.1,698.6 -97.4,948.6 v 0"
         style="fill:#000000;fill-opacity:1;fill-rule:evenodd;stroke:none"
         id="path24" />
      <path
         d="m 11660.8,11399.3 c 1037.1,-1795 2684.8,-2638.1 3208.8,-2651.4 1392.9,-35.3 4077.8,3261.3 4942.4,5927.7 44.2,-1178.6 -2844.5,-6229.3 -4991.6,-6210.9 -762.4,6.5 -2367.6,1342.4 -3159.6,2934.6 v 0"
         style="fill:#000000;fill-opacity:1;fill-rule:nonzero;stroke:none"
         id="path26" />
      <path
         d="m 18469.2,25982.5 c 930.3,-500.4 948.7,-1429.2 492.6,-2138.7 C 16820.2,20512.9 2564.92,16383.2 9574.48,8866.7 6167.14,17107.4 18305.8,20399.5 19623.9,23678.5 c 294,731.5 -44.7,2077.8 -1154.7,2304 v 0"
         style="fill:#000000;fill-opacity:1;fill-rule:evenodd;stroke:none"
         id="path28" />
      <path
         d="m 15789,26434.2 c 4629.6,301.3 396.8,-2887.2 -1099.8,-3666.7 C 10009.9,20330.3 2598.14,16313.9 9574.47,8866.7 c -5988.68,7149.1 336.61,10539.1 4962.33,13136.5 2474.2,1389.2 4641.9,2754 3778.2,3894.7 -329.3,434.8 -878.9,819.6 -2526,536.3 v 0"
         style="fill:#000000;fill-opacity:1;fill-rule:evenodd;stroke:none"
         id="path30" />
      <path
         d="M 21958,14306.4 C 20961,9364.6 18826.9,6689.3 15706.6,5167.3 19416.2,6473 22492.1,11341.8 21958,14306.4 v 0"
         style="fill:#000000;fill-opacity:1;fill-rule:evenodd;stroke:none"
         id="path32" />
      <path
         d="m 7950.34,19742.9 c 328.42,956.2 2571.86,3967.6 7339.56,6050 -3072.3,-716.5 -6655.01,-2834.3 -7339.56,-6050 v 0"
         style="fill:#000000;fill-opacity:1;fill-rule:evenodd;stroke:none"
         id="path34" />
      <path
         d="M 18227.2,19893.9 C 8296.86,16024.3 11332.8,5808.7 13456.9,2369.3 c 60,-97.2 -10435.21,12816.8 4770.3,17524.6 v 0"
         style="fill:#000000;fill-opacity:1;fill-rule:evenodd;stroke:none"
         id="path36" />
      <path
         d="m 15912.4,6125.9 c 5314.3,4172.1 5474.7,13985.3 2247.9,15255.2 3001,1896.3 5875.3,-8810.8 -2247.9,-15255.2 v 0"
         style="fill:#000000;fill-opacity:1;fill-rule:evenodd;stroke:none"
         id="path38" />
      <path
         d="m 23282.8,17738.3 c -1270.1,-1004.1 -4925.4,-2568.1 -6856.3,-2191 l -542.7,-557.6 c 2374.4,-594.4 6315.1,1855.1 7399,2748.6 v 0"
         style="fill:#000000;fill-opacity:1;fill-rule:evenodd;stroke:none"
         id="path40" />
      <path
         d="m 17301.3,15239 -344,-332.8 5340.8,567.9 -4996.8,-235.1 v 0"
         style="fill:#000000;fill-opacity:1;fill-rule:evenodd;stroke:none"
         id="path42" />
      <path
         d="m 22490.8,18639.6 c -1666.4,287.6 -5075.9,7.1 -6312.7,-1390.4 -178.9,-202.1 -177.2,-771.3 -15.3,-622.1 2240.4,2063.4 4950.6,2117 6328,2012.5 v 0"
         style="fill:#000000;fill-opacity:1;fill-rule:evenodd;stroke:none"
         id="path44" />
    </g>
  </g>
</svg>
